<svg xmlns="http://www.w3.org/2000/svg" xmlns:xlink="http://www.w3.org/1999/xlink" width="1920" zoomAndPan="magnify" viewBox="0 0 1440 809.999993" height="1080" preserveAspectRatio="xMidYMid meet" version="1.0"><defs><g/><clipPath id="cc88903ce0"><path d="M 467 487 L 757.847656 487 L 757.847656 590 L 467 590 Z M 467 487 " clip-rule="nonzero"/></clipPath><clipPath id="4fa445dcbf"><path d="M 424 201 L 809 201 L 809 505 L 424 505 Z M 424 201 " clip-rule="nonzero"/></clipPath><clipPath id="d8844e10e0"><path d="M 450.179688 166.816406 L 845.953125 246.023438 L 794.226562 504.488281 L 398.453125 425.28125 Z M 450.179688 166.816406 " clip-rule="nonzero"/></clipPath><clipPath id="d3dd00bf41"><path d="M 846.519531 246.136719 L 450.75 166.929688 L 399.023438 425.394531 L 794.792969 504.601562 Z M 846.519531 246.136719 " clip-rule="nonzero"/></clipPath></defs><path fill="#0cc0df" d="M 622.007812 616.234375 C 627.230469 614.683594 632.316406 612.894531 637.269531 610.90625 C 551.585938 627.859375 465.503906 577.082031 440.140625 491.671875 C 414.777344 406.265625 459.195312 316.734375 540.246094 284.171875 C 535.003906 285.207031 529.769531 286.488281 524.546875 288.039062 C 433.917969 314.949219 382.265625 410.238281 409.179688 500.867188 C 436.089844 591.496094 531.378906 643.148438 622.007812 616.234375 " fill-opacity="1" fill-rule="nonzero"/><path fill="#00bf63" d="M 409.910156 572.785156 C 414.457031 576.351562 419.121094 579.648438 423.878906 582.710938 C 356.671875 519.050781 347.761719 413.5 406.023438 339.191406 C 464.289062 264.886719 568.917969 248.359375 646.773438 298.445312 C 642.660156 294.554688 638.351562 290.808594 633.804688 287.246094 C 554.957031 225.421875 440.914062 239.222656 379.085938 318.070312 C 317.261719 396.921875 331.0625 510.960938 409.910156 572.785156 " fill-opacity="1" fill-rule="nonzero"/><g clip-path="url(#cc88903ce0)"><path fill="#00bf63" d="M 578.621094 564.5 C 531.863281 551.929688 493.402344 523.894531 467.246094 487.386719 C 487.867188 532.914062 527.949219 569.195312 579.980469 583.179688 C 647.953125 601.453125 717.347656 576.582031 759.109375 525.335938 C 710.546875 565.351562 644.011719 582.074219 578.621094 564.5 " fill-opacity="1" fill-rule="nonzero"/></g><g clip-path="url(#4fa445dcbf)"><g clip-path="url(#d8844e10e0)"><g clip-path="url(#d3dd00bf41)"><path fill="#00bf63" d="M 705.703125 230.53125 C 777.480469 272.933594 819.785156 356.226562 805.875 443.550781 C 802.382812 465.476562 795.585938 486.058594 786.097656 504.875 L 785.492188 504.523438 C 794.851562 485.984375 801.492188 465.664062 804.828125 444 C 805.554688 439.28125 806.101562 434.578125 806.496094 429.886719 C 790.167969 429.265625 773.742188 427.675781 757.277344 425.113281 C 752.152344 442.980469 745.183594 460.140625 736.742188 476.285156 L 736.308594 476.03125 C 744.71875 459.957031 751.59375 442.851562 756.597656 425.007812 C 743.097656 422.886719 729.570312 420.105469 716.066406 416.628906 C 707.03125 414.300781 698.15625 411.699219 689.414062 408.839844 C 684.574219 419.355469 679.359375 429.714844 673.816406 439.828125 L 673.5625 439.683594 C 679.097656 429.589844 684.304688 419.242188 689.113281 408.734375 C 661.636719 399.71875 635.628906 388.117188 611.304688 374.269531 L 589.785156 410.488281 L 610.699219 373.917969 C 586.976562 360.359375 564.847656 344.671875 544.519531 327.164062 C 538.300781 335.933594 532.273438 345.066406 526.511719 354.492188 L 526.257812 354.347656 C 532.03125 344.90625 538.066406 335.753906 544.277344 326.957031 C 527.917969 312.84375 512.710938 297.558594 498.777344 281.257812 C 487.515625 293.179688 477.183594 306.394531 468.085938 320.644531 L 467.613281 320.375 C 476.757812 306.0625 487.089844 292.761719 498.339844 280.734375 C 488.914062 269.675781 480.0625 258.148438 471.828125 246.214844 C 453.761719 259.980469 437.992188 276.722656 425.347656 295.886719 L 424.726562 295.527344 C 468.566406 229.117188 548.558594 190.796875 632.257812 204.132812 C 653.316406 207.488281 673.128906 213.882812 691.339844 222.789062 C 692.90625 223.511719 694.449219 224.265625 695.976562 225.050781 C 697.167969 225.601562 698.324219 226.222656 699.4375 226.898438 C 699.527344 226.953125 699.609375 227.015625 699.695312 227.070312 C 700.496094 227.523438 701.304688 227.96875 702.089844 228.4375 C 702.246094 228.527344 702.394531 228.632812 702.550781 228.726562 C 703.605469 229.324219 704.664062 229.914062 705.703125 230.527344 Z M 698.628906 230.425781 C 698.167969 230.171875 697.710938 229.921875 697.246094 229.671875 L 684.265625 251.5 C 695.695312 257.878906 707.394531 263.382812 719.289062 268.039062 C 716.433594 250.417969 709.4375 237.445312 698.628906 230.425781 Z M 694.183594 228.03125 C 693.902344 227.886719 693.613281 227.75 693.332031 227.605469 C 685.199219 224.117188 675.339844 223.453125 663.824219 226.058594 C 659.738281 226.984375 655.5625 228.308594 651.300781 229.976562 C 660.453125 236.894531 670.105469 243.339844 680.265625 249.226562 C 680.714844 249.488281 681.167969 249.730469 681.617188 249.988281 Z M 711.546875 238.917969 C 716.566406 246.632812 719.867188 256.722656 721.34375 268.828125 C 728.910156 271.722656 736.558594 274.273438 744.253906 276.492188 C 735.65625 261.617188 724.640625 248.902344 711.542969 238.917969 Z M 679.390625 221.570312 C 668.480469 217.730469 656.71875 215.378906 644.203125 214.691406 C 640.347656 214.480469 636.484375 214.445312 632.617188 214.554688 C 638.035156 219.433594 643.671875 224.140625 649.523438 228.632812 C 654.90625 226.277344 660.1875 224.476562 665.300781 223.277344 C 670.3125 222.105469 675.011719 221.546875 679.390625 221.570312 Z M 730.046875 251.636719 C 736.910156 259.359375 742.921875 268.039062 747.972656 277.546875 C 751.632812 278.546875 755.300781 279.460938 758.980469 280.308594 C 750.316406 269.886719 740.628906 260.269531 730.046875 251.632812 Z M 656.5625 212.878906 C 648.242188 210.425781 639.6875 208.4375 630.914062 206.996094 C 628.417969 206.582031 625.914062 206.226562 623.421875 205.90625 C 625.515625 207.96875 627.644531 210.003906 629.808594 212.007812 C 635.078125 211.671875 640.359375 211.617188 645.613281 211.875 C 649.332031 212.054688 652.980469 212.40625 656.5625 212.878906 Z M 761.683594 283.625 C 757.644531 282.746094 753.609375 281.78125 749.589844 280.722656 C 755.246094 292.042969 759.605469 304.457031 762.535156 317.75 C 770.125 318.976562 777.726562 319.917969 785.324219 320.585938 C 778.753906 307.480469 770.828125 295.085938 761.683594 283.625 Z M 619.101562 205.398438 C 601.804688 203.539062 584.761719 203.847656 568.238281 206.132812 C 572.828125 211.738281 577.617188 217.210938 582.601562 222.507812 C 596.921875 217.082031 611.542969 213.578125 626.175781 212.28125 C 623.777344 210.019531 621.414062 207.730469 619.101562 205.398438 Z M 746.109375 279.804688 C 746.105469 279.800781 746.09375 279.800781 746.09375 279.796875 C 737.886719 277.523438 729.734375 274.859375 721.660156 271.8125 C 722.679688 282.496094 722.347656 294.640625 720.621094 308.003906 C 733.800781 312.027344 747.089844 315.148438 760.410156 317.394531 C 757.117188 303.839844 752.308594 291.230469 746.109375 279.804688 Z M 628.789062 214.710938 C 613.738281 215.535156 598.683594 218.703125 583.953125 223.941406 C 593.144531 233.585938 603.003906 242.671875 613.480469 251.164062 C 624.808594 242.160156 636.007812 234.945312 646.78125 229.890625 C 640.539062 225.050781 634.535156 219.984375 628.789062 214.710938 Z M 719.722656 271.066406 C 707.234375 266.253906 694.941406 260.5 682.929688 253.792969 L 664.464844 284.847656 C 673.40625 289.578125 682.648438 293.933594 692.195312 297.863281 C 701.25 301.589844 710.390625 304.851562 719.574219 307.6875 C 721.117188 294.074219 721.132812 281.777344 719.722656 271.066406 Z M 648.441406 231.140625 C 637.425781 235.839844 625.9375 242.875 614.304688 251.84375 C 629.101562 263.757812 645.140625 274.445312 662.34375 283.710938 L 680.316406 252.300781 C 679.871094 252.046875 679.421875 251.804688 678.980469 251.546875 C 668.230469 245.320312 658.054688 238.488281 648.441406 231.140625 Z M 786.074219 322.09375 C 778.332031 321.375 770.578125 320.359375 762.835938 319.066406 C 766.171875 334.777344 767.5 351.6875 766.664062 369.429688 C 778.871094 371.199219 791.105469 372.328125 803.316406 372.851562 C 799.789062 355.132812 793.9375 338.097656 786.074219 322.09375 Z M 566.929688 206.3125 C 551.03125 208.617188 535.648438 212.753906 521.023438 218.511719 C 527.234375 227.382812 533.863281 235.988281 540.878906 244.308594 C 553.96875 235.5 567.640625 228.273438 581.628906 222.882812 C 576.535156 217.515625 571.617188 211.996094 566.929688 206.316406 Z M 760.734375 318.703125 C 747.269531 316.359375 733.828125 313.144531 720.488281 309.007812 C 718.546875 323.507812 714.964844 339.414062 709.683594 356.4375 C 728.117188 362.234375 746.761719 366.492188 765.480469 369.261719 C 766.089844 351.425781 764.429688 334.441406 760.734375 318.703125 Z M 582.964844 224.289062 C 568.765625 229.433594 554.890625 236.492188 541.625 245.191406 C 553.128906 258.742188 565.679688 271.527344 579.261719 283.394531 C 590.355469 271.335938 601.640625 260.644531 612.8125 251.699219 C 602.222656 243.148438 592.273438 233.984375 582.964844 224.289062 Z M 719.449219 308.671875 C 710.546875 305.878906 701.6875 302.699219 692.898438 299.082031 C 682.960938 294.992188 673.355469 290.449219 664.054688 285.511719 L 639.875 326.203125 C 647.421875 330.449219 655.167969 334.457031 663.121094 338.210938 C 678.230469 345.347656 693.613281 351.34375 709.140625 356.253906 C 714.316406 339.136719 717.738281 323.171875 719.449219 308.671875 Z M 613.628906 252.347656 C 602.328125 261.125 590.90625 271.722656 579.6875 283.75 C 597.5625 299.320312 617.191406 313.316406 638.472656 325.414062 L 661.953125 284.382812 C 644.675781 275.046875 628.53125 264.304688 613.625 252.347656 Z M 803.671875 374.785156 C 791.320312 374.171875 778.9375 372.949219 766.585938 371.070312 C 765.777344 385.792969 763.476562 401.078125 759.550781 416.714844 C 758.949219 419.105469 758.308594 421.476562 757.640625 423.84375 C 774.023438 426.296875 790.386719 427.746094 806.648438 428.25 C 808.035156 410.046875 806.949219 392.101562 803.671875 374.785156 Z M 519.746094 219.007812 C 503.230469 225.640625 487.71875 234.375 473.574219 244.917969 C 481.652344 256.835938 490.355469 268.335938 499.621094 279.390625 C 512.082031 266.25 525.636719 254.644531 539.90625 244.933594 C 532.789062 236.574219 526.058594 227.914062 519.746094 219.007812 Z M 765.414062 370.878906 C 746.613281 367.957031 727.863281 363.542969 709.324219 357.59375 C 706.789062 365.671875 703.878906 374 700.570312 382.542969 C 697.273438 391.058594 693.6875 399.519531 689.863281 407.882812 C 698.082031 410.550781 706.441406 412.972656 714.925781 415.15625 C 728.925781 418.761719 742.941406 421.605469 756.945312 423.726562 C 757.535156 421.574219 758.121094 419.414062 758.65625 417.246094 C 762.582031 401.355469 764.789062 385.824219 765.414062 370.878906 Z M 540.648438 245.828125 C 526.25 255.371094 512.585938 266.839844 500.058594 279.910156 C 513.835938 296.285156 528.875 311.644531 545.105469 325.816406 C 555.859375 310.675781 567.140625 296.632812 578.648438 284.0625 C 564.96875 272.167969 552.273438 259.394531 540.648438 245.828125 Z M 708.800781 357.421875 C 693.652344 352.535156 678.65625 346.632812 663.878906 339.652344 C 655.507812 335.699219 647.363281 331.457031 639.433594 326.972656 L 611.855469 373.371094 C 636.109375 387.246094 662.082031 398.835938 689.5625 407.777344 C 693.253906 399.664062 696.703125 391.460938 699.878906 383.195312 C 703.277344 374.355469 706.242188 365.757812 708.796875 357.421875 Z M 579.070312 284.421875 C 567.492188 296.898438 556.140625 310.898438 545.347656 326.023438 C 565.550781 343.640625 587.570312 359.417969 611.234375 373.011719 L 638.027344 326.179688 C 616.726562 314.023438 597.035156 299.996094 579.070312 284.421875 Z M 579.070312 284.421875 " fill-opacity="1" fill-rule="nonzero"/></g></g></g><g fill="#00bf63" fill-opacity="1"><g transform="translate(484.2461, 493.960662)"><g><path d="M 64.9375 -30.734375 C 66.039062 -37.003906 62.960938 -41.796875 55.703125 -45.109375 L 40.453125 -51.1875 C 22.753906 -59.09375 14.351562 -69.972656 15.25 -83.828125 C 15.613281 -90.242188 17.71875 -95.925781 21.5625 -100.875 C 25.40625 -105.832031 30.800781 -109.71875 37.75 -112.53125 C 44.707031 -115.351562 52.21875 -116.710938 60.28125 -116.609375 C 71.394531 -116.398438 80.375 -113.09375 87.21875 -106.6875 C 94.0625 -100.289062 97.429688 -91.722656 97.328125 -80.984375 L 74.265625 -80.984375 C 74.523438 -86.191406 73.378906 -90.242188 70.828125 -93.140625 C 68.273438 -96.035156 64.3125 -97.535156 58.9375 -97.640625 C 53.664062 -97.753906 49.082031 -96.554688 45.1875 -94.046875 C 41.289062 -91.546875 38.972656 -88.113281 38.234375 -83.75 C 37.234375 -78 41.078125 -73.441406 49.765625 -70.078125 L 60.203125 -66.125 L 66.203125 -63.359375 C 81.742188 -55.671875 89.015625 -44.875 88.015625 -30.96875 C 87.535156 -24.175781 85.359375 -18.316406 81.484375 -13.390625 C 77.617188 -8.460938 72.351562 -4.679688 65.6875 -2.046875 C 59.03125 0.578125 51.695312 1.8125 43.6875 1.65625 C 35.519531 1.5 28.25 -0.207031 21.875 -3.46875 C 15.507812 -6.738281 10.664062 -11.347656 7.34375 -17.296875 C 4.238281 -22.828125 2.789062 -29.148438 3 -36.265625 L 26.15625 -36.1875 C 25.414062 -23.695312 31.550781 -17.347656 44.5625 -17.140625 C 50.195312 -17.140625 54.828125 -18.375 58.453125 -20.84375 C 62.085938 -23.320312 64.25 -26.617188 64.9375 -30.734375 Z M 64.9375 -30.734375 "/></g></g></g><g fill="#00bf63" fill-opacity="1"><g transform="translate(573.885787, 493.960662)"><g><path d="M 82.328125 -42.5 C 81.210938 -33.550781 78.863281 -25.597656 75.28125 -18.640625 C 71.707031 -11.691406 67.257812 -6.53125 61.9375 -3.15625 C 56.613281 0.207031 50.710938 1.8125 44.234375 1.65625 C 35.972656 1.445312 29.445312 -1.628906 24.65625 -7.578125 L 16.828125 32.859375 L -5.453125 32.859375 L 15.015625 -85.484375 L 35.546875 -85.5625 L 34.046875 -76.953125 C 40.210938 -83.898438 47.484375 -87.269531 55.859375 -87.0625 C 64.234375 -86.851562 70.738281 -83.8125 75.375 -77.9375 C 80.007812 -72.0625 82.484375 -64.09375 82.796875 -54.03125 C 82.898438 -50.769531 82.742188 -46.925781 82.328125 -42.5 Z M 60.203125 -44.15625 L 60.671875 -51.75 C 60.773438 -56.851562 59.835938 -60.90625 57.859375 -63.90625 C 55.890625 -66.914062 53.007812 -68.472656 49.21875 -68.578125 C 42.738281 -68.785156 37.394531 -66.046875 33.1875 -60.359375 L 26.78125 -25.125 C 28.726562 -19.800781 32.914062 -17.035156 39.34375 -16.828125 C 44.71875 -16.671875 49.191406 -18.75 52.765625 -23.0625 C 56.347656 -27.382812 58.828125 -34.414062 60.203125 -44.15625 Z M 60.203125 -44.15625 "/></g></g></g><g fill="#00bf63" fill-opacity="1"><g transform="translate(655.388759, 493.960662)"><g><path d="M 40.84375 1.578125 C 33.363281 1.523438 26.738281 -0.300781 20.96875 -3.90625 C 15.207031 -7.519531 10.90625 -12.472656 8.0625 -18.765625 C 5.21875 -25.054688 4.109375 -31.992188 4.734375 -39.578125 L 4.984375 -42.734375 C 5.765625 -51.054688 8.179688 -58.691406 12.234375 -65.640625 C 16.296875 -72.597656 21.515625 -77.957031 27.890625 -81.71875 C 34.265625 -85.488281 41.320312 -87.269531 49.0625 -87.0625 C 60.070312 -86.851562 68.40625 -82.8125 74.0625 -74.9375 C 79.726562 -67.0625 81.875 -57.09375 80.5 -45.03125 L 79.234375 -35.3125 L 26.859375 -35.3125 C 26.648438 -29.78125 27.992188 -25.351562 30.890625 -22.03125 C 33.785156 -18.71875 37.734375 -17.007812 42.734375 -16.90625 C 50.847656 -16.695312 57.960938 -19.832031 64.078125 -26.3125 L 74.265625 -13.671875 C 71.046875 -8.828125 66.40625 -5.046875 60.34375 -2.328125 C 54.289062 0.378906 47.789062 1.679688 40.84375 1.578125 Z M 47.953125 -68.65625 C 43.847656 -68.757812 40.203125 -67.46875 37.015625 -64.78125 C 33.828125 -62.09375 30.96875 -57.429688 28.4375 -50.796875 L 59.09375 -50.796875 L 59.5625 -52.859375 C 59.882812 -54.960938 59.910156 -56.960938 59.640625 -58.859375 C 59.117188 -61.910156 57.828125 -64.289062 55.765625 -66 C 53.710938 -67.71875 51.109375 -68.601562 47.953125 -68.65625 Z M 47.953125 -68.65625 "/></g></g></g><g fill="#00bf63" fill-opacity="1"><g transform="translate(733.415847, 493.960662)"><g><path d="M 37.6875 -16.75 C 41.789062 -16.644531 45.210938 -17.765625 47.953125 -20.109375 C 50.691406 -22.453125 52.484375 -25.570312 53.328125 -29.46875 L 74.265625 -29.546875 C 73.890625 -23.546875 72.003906 -18.144531 68.609375 -13.34375 C 65.210938 -8.550781 60.679688 -4.8125 55.015625 -2.125 C 49.359375 0.550781 43.394531 1.8125 37.125 1.65625 C 26.75 1.5 18.53125 -2.078125 12.46875 -9.078125 C 6.414062 -16.085938 3.5 -25.410156 3.71875 -37.046875 L 3.953125 -41.390625 L 4.03125 -42.265625 C 5.445312 -56.171875 10.128906 -67.191406 18.078125 -75.328125 C 26.035156 -83.460938 35.863281 -87.375 47.5625 -87.0625 C 57.195312 -86.851562 64.84375 -83.707031 70.5 -77.625 C 76.164062 -71.539062 78.945312 -63.519531 78.84375 -53.5625 L 58.0625 -53.5625 C 58.0625 -58.144531 57.0625 -61.753906 55.0625 -64.390625 C 53.0625 -67.023438 50.0625 -68.445312 46.0625 -68.65625 C 35.414062 -68.96875 28.960938 -61.195312 26.703125 -45.34375 C 25.910156 -39.601562 25.617188 -34.757812 25.828125 -30.8125 C 26.359375 -21.59375 30.3125 -16.90625 37.6875 -16.75 Z M 37.6875 -16.75 "/></g></g></g><g fill="#00bf63" fill-opacity="1"><g transform="translate(808.441051, 493.960662)"><g><path d="M 45.421875 -106.5 L 41.71875 -85.484375 L 55.9375 -85.484375 L 53.015625 -68.734375 L 38.796875 -68.734375 L 31.515625 -25.90625 C 31.203125 -23.226562 31.414062 -21.175781 32.15625 -19.75 C 32.894531 -18.332031 34.6875 -17.566406 37.53125 -17.453125 C 38.375 -17.398438 40.640625 -17.535156 44.328125 -17.859375 L 42.734375 -0.390625 C 38.785156 0.921875 34.519531 1.523438 29.9375 1.421875 C 22.613281 1.316406 17.160156 -0.972656 13.578125 -5.453125 C 10.003906 -9.929688 8.535156 -15.988281 9.171875 -23.625 L 16.515625 -68.734375 L 4.421875 -68.734375 L 7.34375 -85.484375 L 19.4375 -85.484375 L 23.0625 -106.5 Z M 45.421875 -106.5 "/></g></g></g><g fill="#00bf63" fill-opacity="1"><g transform="translate(854.632264, 493.960662)"><g><path d="M 58.78125 -64.078125 C 55.726562 -64.597656 53.222656 -64.859375 51.265625 -64.859375 C 43.316406 -65.066406 37.023438 -62.09375 32.390625 -55.9375 L 22.515625 0 L 0.234375 0 L 15.09375 -85.484375 L 36.03125 -85.5625 L 33.96875 -75.125 C 39.34375 -83.1875 45.976562 -87.21875 53.875 -87.21875 C 56.09375 -87.21875 58.675781 -86.847656 61.625 -86.109375 Z M 58.78125 -64.078125 "/></g></g></g><g fill="#00bf63" fill-opacity="1"><g transform="translate(905.089328, 493.960662)"><g><path d="M 53.171875 -8.84375 C 46.847656 -1.738281 39 1.734375 29.625 1.578125 C 21.40625 1.472656 15.1875 -1.472656 10.96875 -7.265625 C 6.757812 -13.054688 5.128906 -20.691406 6.078125 -30.171875 L 15.328125 -85.484375 L 37.609375 -85.484375 L 28.203125 -29.9375 C 27.992188 -28.195312 27.96875 -26.566406 28.125 -25.046875 C 28.65625 -19.773438 31.578125 -17.0625 36.890625 -16.90625 C 43.796875 -16.695312 49.507812 -19.359375 54.03125 -24.890625 L 64.703125 -85.484375 L 87.140625 -85.484375 L 72.28125 0 L 51.515625 0 Z M 53.171875 -8.84375 "/></g></g></g><g fill="#00bf63" fill-opacity="1"><g transform="translate(986.118324, 493.960662)"><g><path d="M 35.78125 -85.5625 L 33.96875 -75.84375 C 40.875 -83.53125 49.222656 -87.269531 59.015625 -87.0625 C 64.285156 -86.957031 68.65625 -85.742188 72.125 -83.421875 C 75.601562 -81.109375 77.945312 -77.976562 79.15625 -74.03125 C 86.6875 -82.925781 95.535156 -87.269531 105.703125 -87.0625 C 113.546875 -86.90625 119.457031 -84.21875 123.4375 -79 C 127.414062 -73.789062 129.085938 -66.257812 128.453125 -56.40625 L 128.296875 -54.4375 L 119.21875 0 L 96.859375 0 L 105.9375 -54.59375 C 106.15625 -56.539062 106.234375 -58.359375 106.171875 -60.046875 C 105.804688 -65.578125 102.648438 -68.421875 96.703125 -68.578125 C 90.585938 -68.578125 85.347656 -65.3125 80.984375 -58.78125 L 80.734375 -56.953125 L 70.78125 0 L 48.5 0 L 57.59375 -54.4375 C 57.800781 -56.382812 57.878906 -58.203125 57.828125 -59.890625 C 57.460938 -65.472656 54.328125 -68.34375 48.421875 -68.5 C 42.785156 -68.65625 37.707031 -65.992188 33.1875 -60.515625 L 22.515625 0 L 0.234375 0 L 15.015625 -85.484375 Z M 35.78125 -85.5625 "/></g></g></g></svg>